<mxfile host="app.diagrams.net" modified="2024-05-17T06:52:22.311Z" agent="Mozilla/5.0 (Windows NT 10.0; Win64; x64) AppleWebKit/537.36 (KHTML, like Gecko) Chrome/124.0.0.0 Safari/537.36" etag="XvovxuwmHsEfsWDHgJdg" version="24.4.3" type="device">
  <diagram name="Page-1" id="YYM1_ph0669vdMbHxS5y">
    <mxGraphModel dx="1434" dy="746" grid="1" gridSize="10" guides="1" tooltips="1" connect="1" arrows="1" fold="1" page="1" pageScale="1" pageWidth="1654" pageHeight="1169" math="0" shadow="0">
      <root>
        <mxCell id="0" />
        <mxCell id="1" parent="0" />
        <mxCell id="XqJKA12RNHNlzY4lFOwq-1" value="1.1" style="rhombus;whiteSpace=wrap;html=1;" vertex="1" parent="1">
          <mxGeometry x="280" y="200" width="80" height="50" as="geometry" />
        </mxCell>
        <mxCell id="XqJKA12RNHNlzY4lFOwq-2" value="2.1" style="rhombus;whiteSpace=wrap;html=1;" vertex="1" parent="1">
          <mxGeometry x="440" y="280" width="80" height="50" as="geometry" />
        </mxCell>
        <mxCell id="XqJKA12RNHNlzY4lFOwq-3" value="1.5" style="rhombus;whiteSpace=wrap;html=1;" vertex="1" parent="1">
          <mxGeometry x="440" y="200" width="80" height="50" as="geometry" />
        </mxCell>
        <mxCell id="XqJKA12RNHNlzY4lFOwq-4" value="1.4" style="rhombus;whiteSpace=wrap;html=1;" vertex="1" parent="1">
          <mxGeometry x="280" y="280" width="80" height="50" as="geometry" />
        </mxCell>
        <mxCell id="XqJKA12RNHNlzY4lFOwq-5" value="1.3" style="rhombus;whiteSpace=wrap;html=1;" vertex="1" parent="1">
          <mxGeometry x="280" y="360" width="80" height="50" as="geometry" />
        </mxCell>
        <mxCell id="XqJKA12RNHNlzY4lFOwq-6" value="1.2" style="rhombus;whiteSpace=wrap;html=1;" vertex="1" parent="1">
          <mxGeometry x="280" y="440" width="80" height="50" as="geometry" />
        </mxCell>
        <mxCell id="XqJKA12RNHNlzY4lFOwq-8" value="2.2" style="rhombus;whiteSpace=wrap;html=1;" vertex="1" parent="1">
          <mxGeometry x="440" y="360" width="80" height="50" as="geometry" />
        </mxCell>
        <mxCell id="XqJKA12RNHNlzY4lFOwq-9" value="2.3" style="rhombus;whiteSpace=wrap;html=1;" vertex="1" parent="1">
          <mxGeometry x="440" y="440" width="80" height="50" as="geometry" />
        </mxCell>
        <mxCell id="XqJKA12RNHNlzY4lFOwq-10" value="3.1" style="rhombus;whiteSpace=wrap;html=1;" vertex="1" parent="1">
          <mxGeometry x="600" y="320" width="80" height="50" as="geometry" />
        </mxCell>
        <mxCell id="XqJKA12RNHNlzY4lFOwq-11" value="4.1" style="rhombus;whiteSpace=wrap;html=1;" vertex="1" parent="1">
          <mxGeometry x="760" y="280" width="80" height="50" as="geometry" />
        </mxCell>
        <mxCell id="XqJKA12RNHNlzY4lFOwq-12" value="4.3" style="rhombus;whiteSpace=wrap;html=1;" vertex="1" parent="1">
          <mxGeometry x="760" y="360" width="80" height="50" as="geometry" />
        </mxCell>
        <mxCell id="XqJKA12RNHNlzY4lFOwq-13" value="4.2" style="rhombus;whiteSpace=wrap;html=1;" vertex="1" parent="1">
          <mxGeometry x="920" y="280" width="80" height="50" as="geometry" />
        </mxCell>
        <mxCell id="XqJKA12RNHNlzY4lFOwq-14" value="3.2" style="rhombus;whiteSpace=wrap;html=1;" vertex="1" parent="1">
          <mxGeometry x="920" y="360" width="80" height="50" as="geometry" />
        </mxCell>
        <mxCell id="XqJKA12RNHNlzY4lFOwq-15" value="4.4" style="rhombus;whiteSpace=wrap;html=1;" vertex="1" parent="1">
          <mxGeometry x="1080" y="360" width="80" height="50" as="geometry" />
        </mxCell>
        <mxCell id="XqJKA12RNHNlzY4lFOwq-16" value="5.1" style="rhombus;whiteSpace=wrap;html=1;" vertex="1" parent="1">
          <mxGeometry x="1240" y="320" width="80" height="50" as="geometry" />
        </mxCell>
        <mxCell id="XqJKA12RNHNlzY4lFOwq-17" value="5.2" style="rhombus;whiteSpace=wrap;html=1;" vertex="1" parent="1">
          <mxGeometry x="1400" y="320" width="80" height="50" as="geometry" />
        </mxCell>
        <mxCell id="XqJKA12RNHNlzY4lFOwq-18" value="" style="endArrow=classic;html=1;rounded=0;exitX=1;exitY=0.5;exitDx=0;exitDy=0;entryX=0;entryY=0.5;entryDx=0;entryDy=0;" edge="1" parent="1" source="XqJKA12RNHNlzY4lFOwq-1" target="XqJKA12RNHNlzY4lFOwq-3">
          <mxGeometry width="50" height="50" relative="1" as="geometry">
            <mxPoint x="870" y="410" as="sourcePoint" />
            <mxPoint x="920" y="360" as="targetPoint" />
          </mxGeometry>
        </mxCell>
        <mxCell id="XqJKA12RNHNlzY4lFOwq-19" value="" style="endArrow=classic;html=1;rounded=0;exitX=1;exitY=0.5;exitDx=0;exitDy=0;entryX=0;entryY=0.5;entryDx=0;entryDy=0;" edge="1" parent="1" source="XqJKA12RNHNlzY4lFOwq-6" target="XqJKA12RNHNlzY4lFOwq-3">
          <mxGeometry width="50" height="50" relative="1" as="geometry">
            <mxPoint x="390" y="290" as="sourcePoint" />
            <mxPoint x="440" y="240" as="targetPoint" />
          </mxGeometry>
        </mxCell>
        <mxCell id="XqJKA12RNHNlzY4lFOwq-20" value="" style="endArrow=classic;html=1;rounded=0;exitX=1;exitY=0.5;exitDx=0;exitDy=0;entryX=0;entryY=0.5;entryDx=0;entryDy=0;" edge="1" parent="1" source="XqJKA12RNHNlzY4lFOwq-6" target="XqJKA12RNHNlzY4lFOwq-2">
          <mxGeometry width="50" height="50" relative="1" as="geometry">
            <mxPoint x="370" y="360" as="sourcePoint" />
            <mxPoint x="420" y="310" as="targetPoint" />
          </mxGeometry>
        </mxCell>
        <mxCell id="XqJKA12RNHNlzY4lFOwq-21" value="" style="endArrow=classic;html=1;rounded=0;exitX=1;exitY=0.5;exitDx=0;exitDy=0;entryX=0;entryY=0.5;entryDx=0;entryDy=0;" edge="1" parent="1" source="XqJKA12RNHNlzY4lFOwq-6" target="XqJKA12RNHNlzY4lFOwq-8">
          <mxGeometry width="50" height="50" relative="1" as="geometry">
            <mxPoint x="380" y="400" as="sourcePoint" />
            <mxPoint x="430" y="350" as="targetPoint" />
          </mxGeometry>
        </mxCell>
        <mxCell id="XqJKA12RNHNlzY4lFOwq-22" value="" style="endArrow=classic;html=1;rounded=0;exitX=1;exitY=0.5;exitDx=0;exitDy=0;entryX=0;entryY=0.5;entryDx=0;entryDy=0;" edge="1" parent="1" source="XqJKA12RNHNlzY4lFOwq-4" target="XqJKA12RNHNlzY4lFOwq-3">
          <mxGeometry width="50" height="50" relative="1" as="geometry">
            <mxPoint x="370" y="450" as="sourcePoint" />
            <mxPoint x="420" y="400" as="targetPoint" />
          </mxGeometry>
        </mxCell>
        <mxCell id="XqJKA12RNHNlzY4lFOwq-23" value="" style="endArrow=classic;html=1;rounded=0;exitX=1;exitY=0.5;exitDx=0;exitDy=0;entryX=0;entryY=0.5;entryDx=0;entryDy=0;" edge="1" parent="1" source="XqJKA12RNHNlzY4lFOwq-5" target="XqJKA12RNHNlzY4lFOwq-3">
          <mxGeometry width="50" height="50" relative="1" as="geometry">
            <mxPoint x="400" y="480" as="sourcePoint" />
            <mxPoint x="430" y="230" as="targetPoint" />
          </mxGeometry>
        </mxCell>
        <mxCell id="XqJKA12RNHNlzY4lFOwq-24" value="" style="endArrow=classic;html=1;rounded=0;exitX=1;exitY=0.5;exitDx=0;exitDy=0;entryX=0;entryY=0.5;entryDx=0;entryDy=0;" edge="1" parent="1" source="XqJKA12RNHNlzY4lFOwq-6" target="XqJKA12RNHNlzY4lFOwq-9">
          <mxGeometry width="50" height="50" relative="1" as="geometry">
            <mxPoint x="420" y="490" as="sourcePoint" />
            <mxPoint x="470" y="440" as="targetPoint" />
          </mxGeometry>
        </mxCell>
        <mxCell id="XqJKA12RNHNlzY4lFOwq-26" value="" style="endArrow=classic;html=1;rounded=0;entryX=0;entryY=0.5;entryDx=0;entryDy=0;exitX=1;exitY=0.5;exitDx=0;exitDy=0;" edge="1" parent="1" source="XqJKA12RNHNlzY4lFOwq-9" target="XqJKA12RNHNlzY4lFOwq-10">
          <mxGeometry width="50" height="50" relative="1" as="geometry">
            <mxPoint x="530" y="400" as="sourcePoint" />
            <mxPoint x="580" y="350" as="targetPoint" />
          </mxGeometry>
        </mxCell>
        <mxCell id="XqJKA12RNHNlzY4lFOwq-27" value="" style="endArrow=classic;html=1;rounded=0;entryX=0;entryY=0.5;entryDx=0;entryDy=0;exitX=1;exitY=0.5;exitDx=0;exitDy=0;" edge="1" parent="1" source="XqJKA12RNHNlzY4lFOwq-8" target="XqJKA12RNHNlzY4lFOwq-10">
          <mxGeometry width="50" height="50" relative="1" as="geometry">
            <mxPoint x="530" y="475" as="sourcePoint" />
            <mxPoint x="610" y="355" as="targetPoint" />
          </mxGeometry>
        </mxCell>
        <mxCell id="XqJKA12RNHNlzY4lFOwq-28" value="" style="endArrow=classic;html=1;rounded=0;entryX=0;entryY=0.5;entryDx=0;entryDy=0;exitX=1;exitY=0.5;exitDx=0;exitDy=0;" edge="1" parent="1" source="XqJKA12RNHNlzY4lFOwq-2" target="XqJKA12RNHNlzY4lFOwq-10">
          <mxGeometry width="50" height="50" relative="1" as="geometry">
            <mxPoint x="530" y="395" as="sourcePoint" />
            <mxPoint x="610" y="355" as="targetPoint" />
          </mxGeometry>
        </mxCell>
        <mxCell id="XqJKA12RNHNlzY4lFOwq-29" value="" style="endArrow=classic;html=1;rounded=0;exitX=1;exitY=0.5;exitDx=0;exitDy=0;entryX=0;entryY=0.5;entryDx=0;entryDy=0;" edge="1" parent="1" source="XqJKA12RNHNlzY4lFOwq-3" target="XqJKA12RNHNlzY4lFOwq-10">
          <mxGeometry width="50" height="50" relative="1" as="geometry">
            <mxPoint x="530" y="315" as="sourcePoint" />
            <mxPoint x="600" y="340" as="targetPoint" />
          </mxGeometry>
        </mxCell>
        <mxCell id="XqJKA12RNHNlzY4lFOwq-30" value="" style="endArrow=classic;html=1;rounded=0;entryX=0;entryY=0.5;entryDx=0;entryDy=0;exitX=1;exitY=0.5;exitDx=0;exitDy=0;" edge="1" parent="1" source="XqJKA12RNHNlzY4lFOwq-10" target="XqJKA12RNHNlzY4lFOwq-11">
          <mxGeometry width="50" height="50" relative="1" as="geometry">
            <mxPoint x="540" y="325" as="sourcePoint" />
            <mxPoint x="620" y="365" as="targetPoint" />
          </mxGeometry>
        </mxCell>
        <mxCell id="XqJKA12RNHNlzY4lFOwq-31" value="" style="endArrow=classic;html=1;rounded=0;entryX=0;entryY=0.5;entryDx=0;entryDy=0;exitX=1;exitY=0.5;exitDx=0;exitDy=0;" edge="1" parent="1" source="XqJKA12RNHNlzY4lFOwq-10" target="XqJKA12RNHNlzY4lFOwq-12">
          <mxGeometry width="50" height="50" relative="1" as="geometry">
            <mxPoint x="690" y="355" as="sourcePoint" />
            <mxPoint x="770" y="315" as="targetPoint" />
          </mxGeometry>
        </mxCell>
        <mxCell id="XqJKA12RNHNlzY4lFOwq-32" value="" style="endArrow=classic;html=1;rounded=0;entryX=0;entryY=0.5;entryDx=0;entryDy=0;exitX=1;exitY=0.5;exitDx=0;exitDy=0;" edge="1" parent="1" source="XqJKA12RNHNlzY4lFOwq-12" target="XqJKA12RNHNlzY4lFOwq-14">
          <mxGeometry width="50" height="50" relative="1" as="geometry">
            <mxPoint x="690" y="355" as="sourcePoint" />
            <mxPoint x="770" y="395" as="targetPoint" />
          </mxGeometry>
        </mxCell>
        <mxCell id="XqJKA12RNHNlzY4lFOwq-33" value="" style="endArrow=classic;html=1;rounded=0;entryX=0;entryY=0.5;entryDx=0;entryDy=0;exitX=1;exitY=0.5;exitDx=0;exitDy=0;" edge="1" parent="1" source="XqJKA12RNHNlzY4lFOwq-11" target="XqJKA12RNHNlzY4lFOwq-13">
          <mxGeometry width="50" height="50" relative="1" as="geometry">
            <mxPoint x="850" y="395" as="sourcePoint" />
            <mxPoint x="930" y="395" as="targetPoint" />
          </mxGeometry>
        </mxCell>
        <mxCell id="XqJKA12RNHNlzY4lFOwq-34" value="" style="endArrow=classic;html=1;rounded=0;entryX=0.5;entryY=0;entryDx=0;entryDy=0;exitX=0.5;exitY=1;exitDx=0;exitDy=0;" edge="1" parent="1" source="XqJKA12RNHNlzY4lFOwq-13" target="XqJKA12RNHNlzY4lFOwq-14">
          <mxGeometry width="50" height="50" relative="1" as="geometry">
            <mxPoint x="850" y="315" as="sourcePoint" />
            <mxPoint x="930" y="315" as="targetPoint" />
          </mxGeometry>
        </mxCell>
        <mxCell id="XqJKA12RNHNlzY4lFOwq-35" value="" style="endArrow=classic;html=1;rounded=0;entryX=0;entryY=0.5;entryDx=0;entryDy=0;exitX=1;exitY=0.5;exitDx=0;exitDy=0;" edge="1" parent="1" source="XqJKA12RNHNlzY4lFOwq-14" target="XqJKA12RNHNlzY4lFOwq-15">
          <mxGeometry width="50" height="50" relative="1" as="geometry">
            <mxPoint x="970" y="340" as="sourcePoint" />
            <mxPoint x="970" y="370" as="targetPoint" />
          </mxGeometry>
        </mxCell>
        <mxCell id="XqJKA12RNHNlzY4lFOwq-36" value="" style="endArrow=classic;html=1;rounded=0;entryX=0;entryY=0.5;entryDx=0;entryDy=0;exitX=1;exitY=0.5;exitDx=0;exitDy=0;" edge="1" parent="1" source="XqJKA12RNHNlzY4lFOwq-13" target="XqJKA12RNHNlzY4lFOwq-16">
          <mxGeometry width="50" height="50" relative="1" as="geometry">
            <mxPoint x="1010" y="395" as="sourcePoint" />
            <mxPoint x="1090" y="395" as="targetPoint" />
          </mxGeometry>
        </mxCell>
        <mxCell id="XqJKA12RNHNlzY4lFOwq-37" value="" style="endArrow=classic;html=1;rounded=0;entryX=0;entryY=0.5;entryDx=0;entryDy=0;exitX=1;exitY=0.5;exitDx=0;exitDy=0;" edge="1" parent="1" source="XqJKA12RNHNlzY4lFOwq-15" target="XqJKA12RNHNlzY4lFOwq-16">
          <mxGeometry width="50" height="50" relative="1" as="geometry">
            <mxPoint x="1010" y="315" as="sourcePoint" />
            <mxPoint x="1250" y="355" as="targetPoint" />
          </mxGeometry>
        </mxCell>
        <mxCell id="XqJKA12RNHNlzY4lFOwq-38" value="" style="endArrow=classic;html=1;rounded=0;entryX=0;entryY=0.5;entryDx=0;entryDy=0;exitX=1;exitY=0.5;exitDx=0;exitDy=0;" edge="1" parent="1" source="XqJKA12RNHNlzY4lFOwq-16" target="XqJKA12RNHNlzY4lFOwq-17">
          <mxGeometry width="50" height="50" relative="1" as="geometry">
            <mxPoint x="1020" y="325" as="sourcePoint" />
            <mxPoint x="1260" y="365" as="targetPoint" />
          </mxGeometry>
        </mxCell>
      </root>
    </mxGraphModel>
  </diagram>
</mxfile>
